<?xml version="1.0" encoding="utf-8"?>
<!-- Generator: Adobe Illustrator 24.1.1, SVG Export Plug-In . SVG Version: 6.00 Build 0)  -->
<svg version="1.1" id="레이어_1" xmlns="http://www.w3.org/2000/svg" xmlns:xlink="http://www.w3.org/1999/xlink" x="0px"
	 y="0px" viewBox="0 0 34 34" style="enable-background:new 0 0 34 34;" xml:space="preserve">
<style type="text/css">
	.st0{fill:none;stroke:#36435E;stroke-width:2;stroke-linecap:round;stroke-linejoin:round;stroke-miterlimit:10;}
</style>
<path class="st0" d="M20.6,30.3l1.4-1.4l6.8-6.8l1.4-1.4l0.3-0.3c1.9-1.9,1.9-5,0-6.9l-2.2-2.2l-5.1,5.1l2.3,2.3l-6.8,6.8l-2.3-2.3
	l-5.1,5.1l2.2,2.2c1.9,1.9,5,1.9,6.9,0L20.6,30.3z"/>
<path class="st0" d="M17.8,10.9c0-4.5-3.7-8.2-8.2-8.2s-8.2,3.7-8.2,8.2c0,3.9,2.8,7.2,6.5,8l1.7,3.8l1.7-3.8
	C15,18.1,17.8,14.8,17.8,10.9z"/>
<line class="st0" x1="6.2" y1="10.9" x2="6.7" y2="10.9"/>
<line class="st0" x1="9.3" y1="10.9" x2="9.8" y2="10.9"/>
<line class="st0" x1="12.5" y1="10.9" x2="13" y2="10.9"/>
</svg>
